# xmcd
#
# Track frame offsets:
#	150
#	16829
#	35217
#	50601
#	66768
#	87978
#	108054
#	119188
#	131873
#	146684
#	162568
#	178211
#	193886
#	210355
#	224001
#
# Disc length: 3170 seconds
#
# Revision: 1
# Processed by: cddbd v1.5.2PL0 Copyright (c) Steve Scherf et al.
# Submitted via: audiograbber 1.83.01
#
DISCID=f10c600f
DTITLE=VARIOS - BALADAS DEL CORAZON VOL. 2
DYEAR=1999
DGENRE=BALADA
TTITLE0=BRYNDIS - ENTRE TU Y YO
TTITLE1=LOS FALCON'S - PORQUE TE VAS
TTITLE2=LOS TEMERARIOS - FUERON TUS PALABRAS
TTITLE3=SAMURAY - NADA VA A CAMBIAR MI AMOR POR TI
TTITLE4=EL GOLPE - NIÑA BIEN
TTITLE5=ROMANCE - Y ME ENAMORE
TTITLE6=TOPPAZ - COSAS DEL AMOR
TTITLE7=LADRON - NO TENGO LAGRIMAS
TTITLE8=SAMURAY - TIERNAS MENTIRAS
TTITLE9=YAHARI - PRIMERA COSA BELLA
TTITLE10=LIBERACION - DIMELO YA
TTITLE11=BRYNDIS - LO NUESTRO TERMINO
TTITLE12=GERARDO Y SU 4ta DIMENSION - EL O YO
TTITLE13=CIMARRON - LA FORMA EN QUE TE QUIERA
TTITLE14=LOS ALFARO - LO QUE ME DUELE
EXTD=
EXTT0=
EXTT1=
EXTT2=
EXTT3=
EXTT4=
EXTT5=
EXTT6=
EXTT7=
EXTT8=
EXTT9=
EXTT10=
EXTT11=
EXTT12=
EXTT13=
EXTT14=
PLAYORDER=
